<?xml version="1.0" encoding="utf-8"?>
<!-- Generator: Adobe Illustrator 15.0.0, SVG Export Plug-In . SVG Version: 6.00 Build 0)  -->
<!DOCTYPE svg PUBLIC "-//W3C//DTD SVG 1.1//EN" "http://www.w3.org/Graphics/SVG/1.1/DTD/svg11.dtd">
<svg version="1.1" id="图层_1" xmlns="http://www.w3.org/2000/svg" xmlns:xlink="http://www.w3.org/1999/xlink" x="0px" y="0px"
	 width="151.368px" height="40.999px" viewBox="0 0 151.368 40.999" enable-background="new 0 0 151.368 40.999"
	 xml:space="preserve">
<path fill="#EA5958" d="M4.765,20.996c-4.136-2.389-5.224-4.65-4.603-7.742c0.46-2.286,2.157-4.142,2.301-6.42
	c0.642,1.2,0.719,2.066,0.79,3.319C5.298,7.585,7.416,4.146,6.96,1c0,0,5.094,3.751,5.444,8.599c0.458-0.999,1.067-4.461,0.609-5.49
	C14.387,5.138,22.057,14.897,11.544,21c1.976-3.95,0.509-9.275-2.922-11.739c0.228,1.058-0.057,3.822-1.577,5.556
	c0.342-1.794-0.517-3.564-0.517-3.564s-0.281,2.246-1.375,3.89C4.158,16.635,3.465,18.226,4.765,20.996z"/>
<path fill-rule="evenodd" clip-rule="evenodd" fill="#2C6EB7" d="M70.515,0l22.498,11l-23,11l2-10.001l14.002-0.498l-14.002-1.002
	L70.515,0z"/>
<path fill-rule="evenodd" clip-rule="evenodd" fill="#989898" d="M47.507,0l22.498,11L47.006,22l1.999-10.001l14.001-0.498
	l-14.001-1.002L47.507,0z"/>
<path fill-rule="evenodd" clip-rule="evenodd" fill="#2D6EB7" d="M0,22h94.668L116,41H0V22z"/>
<path fill="#040000" d="M31.66,12.216c0.163-0.207,0.346-0.559,0.353-1.067c0.031-1.413-1.288-1.888-2.017-1.942h-2.209
	l-0.034-0.008c-0.092-0.195,0.051-0.422,0.051-0.422l0,0c0.027-0.035,0.732-0.917,1.207-2.36c0.525-1.604-0.827-2.741-0.881-2.787
	l-0.078-0.045c-0.054-0.025-0.522-0.209-0.966,0.063c-0.339,0.195-0.542,0.596-0.61,1.175c-0.152,1.346-1.247,2.476-1.762,2.88
	c-0.071,0.063-0.129,0.115-0.169,0.146c-0.369,0.332-0.739,1.2-1.02,1.793c-0.19,0.395-0.705,1.032-0.966,1.266
	c-0.183,0.008-0.539,0.008-0.778,0.011c-0.091-0.293-0.359-0.646-0.669-0.646H17.72c-0.39,0-0.707,0.335-0.707,0.727v6.758
	c0,0.404,0.317,0.74,0.707,0.74h3.391c0.344,0,0.629-0.262,0.691-0.598c0.124-0.01,0.234-0.125,0.298-0.114
	c0.086,0.097,0.286,0.485,0.772,0.683l0.054,0.029h0.063c0.039,0,2.275,0.003,4.306,0.003c1.027,0,1.911,0,2.281-0.003
	c0.654-0.018,0.993-0.311,1.166-0.559c0.329-0.475,0.335-1.018,0.275-1.346c0.43-0.405,0.481-1.137,0.491-1.444
	c0.01-0.272-0.051-0.46-0.143-0.659c0.241-0.223,0.488-0.662,0.519-1.228C31.915,12.776,31.786,12.432,31.66,12.216z M21.178,17.757
	c0,0.046-0.029,0.07-0.068,0.07H17.72c-0.039,0-0.068-0.024-0.068-0.07v-6.758c0-0.035,0.029-0.063,0.068-0.063h3.391
	c0.039,0,0.068,0.028,0.068,0.063V17.757z M31.047,11.927l-0.312,0.24l0.288,0.279c0.014,0.006,0.254,0.244,0.224,0.777
	c-0.034,0.617-0.441,0.875-0.441,0.875l-0.464,0.195l0.37,0.342c0.03,0.031,0.183,0.23,0.152,0.537
	c-0.023,0.271-0.119,0.82-0.396,1.035l-0.362,0.15l0.254,0.224c0.064,0.194,0.078,0.666-0.142,0.973
	c-0.122,0.185-0.336,0.272-0.651,0.282c-1.02,0.014-5.878,0-6.514,0c-0.198-0.09-0.401-0.195-0.471-0.251
	c-0.052-0.104-0.203-0.487-0.781-0.464v-5.541c0.339-0.004,0.883-0.018,0.883-0.018l0.108-0.008l0.084-0.066
	c0.039-0.034,0.907-0.895,1.22-1.562c0.305-0.632,0.61-1.356,0.868-1.583c0.034-0.028,0.081-0.07,0.146-0.123
	c0.525-0.418,1.82-1.701,2.003-3.316c0.041-0.359,0.143-0.6,0.298-0.694c0.129-0.087,0.285-0.056,0.359-0.035
	c0.189,0.178,0.976,0.986,0.637,2.025c-0.437,1.33-1.091,2.152-1.111,2.184c-0.163,0.234-0.356,0.75-0.047,1.229
	c0.135,0.213,0.379,0.271,0.556,0.254h2.169c0.061,0,1.43,0.123,1.403,1.27C31.365,11.675,31.057,11.923,31.047,11.927z"/>
<path fill="#989898" d="M46.652,11.999c0.162-0.205,0.346-0.558,0.353-1.066c0.03-1.413-1.288-1.887-2.017-1.943h-2.21l-0.034-0.007
	c-0.092-0.195,0.051-0.422,0.051-0.422l0,0c0.027-0.034,0.732-0.917,1.207-2.36c0.525-1.605-0.827-2.742-0.881-2.787l-0.078-0.045
	c-0.054-0.024-0.522-0.209-0.966,0.063c-0.339,0.195-0.542,0.597-0.61,1.175c-0.152,1.347-1.247,2.477-1.762,2.881
	c-0.071,0.063-0.129,0.115-0.169,0.146c-0.369,0.331-0.739,1.2-1.02,1.792c-0.19,0.395-0.705,1.033-0.966,1.267
	c-0.183,0.007-0.539,0.007-0.779,0.011c-0.088-0.293-0.359-0.646-0.668-0.646h-3.392c-0.386,0-0.705,0.335-0.705,0.726v6.759
	c0,0.404,0.319,0.739,0.705,0.739h3.392c0.342,0,0.627-0.262,0.691-0.597c0.125-0.011,0.234-0.126,0.298-0.114
	c0.084,0.098,0.288,0.484,0.772,0.684l0.054,0.027h0.064c0.038,0,2.274,0.004,4.304,0.004c1.027,0,1.911,0,2.28-0.004
	c0.654-0.018,0.993-0.311,1.166-0.559c0.329-0.474,0.336-1.018,0.274-1.346c0.431-0.404,0.481-1.137,0.491-1.443
	c0.011-0.272-0.051-0.461-0.142-0.66c0.24-0.223,0.487-0.662,0.519-1.227C46.906,12.561,46.777,12.216,46.652,11.999z
	 M36.169,17.541c0,0.045-0.03,0.069-0.068,0.069h-3.392c-0.038,0-0.068-0.024-0.068-0.069v-6.759c0-0.035,0.03-0.063,0.068-0.063
	h3.392c0.038,0,0.068,0.027,0.068,0.063V17.541z M46.039,11.71l-0.313,0.24l0.288,0.279c0.014,0.007,0.254,0.244,0.224,0.777
	c-0.033,0.617-0.44,0.875-0.44,0.875l-0.464,0.195l0.369,0.342c0.03,0.031,0.183,0.23,0.152,0.537
	c-0.023,0.272-0.118,0.82-0.396,1.036l-0.362,0.149l0.254,0.225c0.064,0.195,0.078,0.666-0.143,0.973
	c-0.122,0.185-0.335,0.271-0.65,0.282c-1.02,0.014-5.876,0-6.514,0c-0.196-0.091-0.4-0.195-0.471-0.251
	c-0.051-0.105-0.203-0.488-0.783-0.464v-5.542c0.339-0.004,0.885-0.018,0.885-0.018l0.108-0.007l0.084-0.065
	c0.041-0.035,0.908-0.896,1.22-1.563c0.305-0.632,0.61-1.357,0.868-1.584c0.034-0.027,0.081-0.07,0.146-0.122
	c0.525-0.419,1.82-1.702,2.003-3.316c0.041-0.359,0.143-0.6,0.298-0.694c0.129-0.087,0.285-0.056,0.359-0.035
	c0.19,0.178,0.976,0.987,0.637,2.027c-0.437,1.328-1.091,2.151-1.111,2.183c-0.163,0.233-0.356,0.75-0.047,1.228
	c0.135,0.213,0.379,0.271,0.556,0.254h2.168c0.062,0,1.431,0.123,1.403,1.27C46.357,11.458,46.048,11.706,46.039,11.71z"/>
<g>
	<g>
		<polygon fill="#FFFFFF" points="107.979,19.5 95.049,19.5 95.049,10.628 95.635,10.628 95.635,18.914 107.395,18.914 
			107.395,10.628 107.979,10.628 		"/>
	</g>
	<g>
		<polygon fill="#FFFFFF" points="93.426,11.322 93.014,10.905 101.514,2.5 110.014,10.905 109.602,11.322 101.514,3.324 		"/>
	</g>
	<g>
		<path fill="#FFFFFF" d="M104.137,19.207h-0.586v-6.435c0-0.395-0.32-0.716-0.715-0.716h-2.645c-0.395,0-0.717,0.321-0.717,0.716
			v6.435h-0.584v-6.435c0-0.717,0.584-1.302,1.301-1.302h2.645c0.719,0,1.301,0.585,1.301,1.302V19.207z"/>
	</g>
</g>
<g>
	<g>
		<path fill="#5A5A5A" d="M117.416,4c3.529,0,6.4,2.961,6.4,6.602s-2.871,6.603-6.4,6.603s-6.4-2.962-6.4-6.603S113.886,4,117.416,4
			 M117.416,3c-4.09,0-7.4,3.404-7.4,7.602c0,4.199,3.311,7.603,7.4,7.603s7.4-3.403,7.4-7.603C124.816,6.404,121.505,3,117.416,3
			L117.416,3z"/>
	</g>
	
		<rect x="121.693" y="16.864" transform="matrix(0.6832 0.7303 -0.7303 0.6832 52.0134 -85.2685)" fill="#595A5A" width="5.166" height="0.892"/>
</g>
<g>
	<g>
		<path fill="#FFFFFF" d="M138.868,1c6.341,0,11.5,5.159,11.5,11.5s-5.159,11.5-11.5,11.5s-11.5-5.159-11.5-11.5
			S132.527,1,138.868,1 M138.868,0c-6.903,0-12.5,5.597-12.5,12.5s5.597,12.5,12.5,12.5c6.904,0,12.5-5.597,12.5-12.5
			S145.772,0,138.868,0L138.868,0z"/>
	</g>
	<path fill="none" stroke="#FFFFFF" stroke-miterlimit="10" d="M129.98,11.827l6.848,7.113L147.76,6.059"/>
</g>
</svg>
