<?xml version="1.0" encoding="utf-8"?>
<!-- Generator: Adobe Illustrator 17.0.0, SVG Export Plug-In . SVG Version: 6.00 Build 0)  -->
<!DOCTYPE svg PUBLIC "-//W3C//DTD SVG 1.1//EN" "http://www.w3.org/Graphics/SVG/1.1/DTD/svg11.dtd">
<svg version="1.1" id="图层_1" xmlns="http://www.w3.org/2000/svg" xmlns:xlink="http://www.w3.org/1999/xlink" x="0px" y="0px"
	 width="225.002px" height="168.054px" viewBox="112.5 45.021 225.002 168.054"
	 enable-background="new 112.5 45.021 225.002 168.054" xml:space="preserve">
<g>
	<path fill="#F67677" d="M224.32,89.631h-23.77V73.656h23.77V89.631L224.32,89.631z M214.915,91.716h-4.835v-0.83h4.835V91.716z
		 M226.75,91.181v-18.88c0-0.71-0.53-1.28-1.18-1.28H199.3c-0.65,0-1.18,0.57-1.18,1.28v18.88h-3.87v1.56
		c0,0.71,0.53,1.28,1.18,1.28h3.87h26.27h4c0.65,0,1.18-0.57,1.18-1.28v-1.56H226.75z"/>
</g>
<path fill="#56B1EA" d="M182,91.406c0,0.72-0.26,1.335-0.775,1.845c-0.515,0.515-1.14,0.77-1.865,0.77h-13.72
	c-0.725,0-1.35-0.255-1.865-0.77c-0.515-0.51-0.775-1.125-0.775-1.845v-17.77c0-0.72,0.26-1.335,0.775-1.845
	c0.515-0.515,1.14-0.77,1.865-0.77h13.72c0.725,0,1.35,0.255,1.865,0.77c0.515,0.51,0.775,1.125,0.775,1.845V91.406z M179.89,73.636
	c0-0.35-0.175-0.525-0.53-0.525h-13.72c-0.355,0-0.53,0.175-0.53,0.525v15.68c0,0.35,0.175,0.525,0.53,0.525h13.72
	c0.355,0,0.53-0.175,0.53-0.525V73.636z M173.24,91.196c-0.205-0.21-0.455-0.31-0.74-0.31s-0.535,0.1-0.74,0.31
	c-0.21,0.205-0.315,0.45-0.315,0.735c0,0.28,0.105,0.525,0.315,0.735c0.205,0.205,0.455,0.31,0.74,0.31s0.535-0.105,0.74-0.31
	c0.21-0.21,0.315-0.455,0.315-0.735C173.555,91.646,173.45,91.401,173.24,91.196z"/>
<path fill="#F7BA5B" d="M137.32,90.826h-9.665v-17.43h9.665V90.826z M132.49,93.161c-0.425,0-0.805-0.34-0.805-0.775
	c0-0.435,0.38-0.78,0.805-0.78c0.445,0,0.795,0.345,0.795,0.78S132.935,93.161,132.49,93.161z M131.295,72.216h2.435
	c0.11,0,0.2,0.09,0.2,0.2s-0.09,0.2-0.2,0.2h-2.435c-0.11,0-0.2-0.09-0.2-0.2S131.185,72.216,131.295,72.216z M136.74,71.021h-8.48
	c-1.235,0-2.26,0.995-2.26,2.2v18.595c0,1.215,1.025,2.205,2.26,2.205h8.48c1.235,0,2.26-0.99,2.26-2.205V73.221
	C139,72.016,137.975,71.021,136.74,71.021z"/>
<path fill="#56B1EA" d="M260.4,78.131c-0.485,0-0.875,0.395-0.875,0.88c0,0.49,0.39,0.885,0.875,0.885s0.88-0.395,0.88-0.885
	C261.28,78.526,260.885,78.131,260.4,78.131z M264.83,90.651c0,0.93-0.75,1.685-1.675,1.685h-21.31
	c-0.925,0-1.675-0.755-1.675-1.685V78.026c0-0.935,0.75-1.685,1.675-1.685h4.885v-0.005c0.26-0.025,0.505-0.19,0.65-0.455
	l1.52-3.075h7.4l1.5,3.075c0.14,0.275,0.395,0.435,0.66,0.455v0.005h4.695c0.925,0,1.675,0.75,1.675,1.685V90.651L264.83,90.651z
	 M263.155,74.601h-4.085l-1.515-3.115c-0.15-0.285-0.415-0.45-0.69-0.46l-0.09-0.005h-8.36c-0.17,0-0.325,0.055-0.455,0.145
	c-0.13,0.075-0.245,0.195-0.325,0.345l-1.525,3.09h-2.35v-0.89c0-0.5-0.405-0.905-0.9-0.905c-0.5,0-0.9,0.405-0.9,0.905v0.89h-0.115
	c-1.85,0-3.345,1.51-3.345,3.37v12.68c0,1.86,1.495,3.37,3.345,3.37h21.31c1.85,0,3.345-1.455,3.345-3.315V77.971
	C266.5,76.111,265.005,74.601,263.155,74.601z M252.48,88.711c-2.415,0-4.38-1.98-4.38-4.415s1.965-4.41,4.38-4.41
	c2.42,0,4.38,1.975,4.38,4.41C256.86,86.731,254.9,88.711,252.48,88.711z M252.515,78.061c-3.405,0-6.165,2.78-6.165,6.205
	c0,3.43,2.76,6.21,6.165,6.21c3.4,0,6.16-2.78,6.16-6.21C258.675,80.841,255.915,78.061,252.515,78.061z"/>
<g>
	<path fill="#F67677" d="M248.995,114.931v-1.91h1.91v1.91H248.995z M249.1,111.571l-0.01-0.5c0-0.66,0.095-1.225,0.28-1.705
		c0.135-0.36,0.355-0.72,0.66-1.085c0.22-0.27,0.625-0.66,1.205-1.17s0.955-0.92,1.13-1.225c0.17-0.3,0.26-0.635,0.26-0.995
		c0-0.65-0.255-1.22-0.765-1.715c-0.505-0.49-1.13-0.74-1.87-0.74c-0.71,0-1.305,0.225-1.785,0.67
		c-0.475,0.445-0.79,1.145-0.94,2.095l-1.72-0.205c0.155-1.275,0.615-2.245,1.38-2.92c0.765-0.68,1.78-1.015,3.04-1.015
		c1.33,0,2.395,0.36,3.19,1.085c0.795,0.73,1.19,1.605,1.19,2.635c0,0.595-0.14,1.145-0.42,1.645s-0.825,1.115-1.635,1.83
		c-0.545,0.49-0.905,0.845-1.07,1.075c-0.165,0.23-0.29,0.49-0.37,0.79c-0.085,0.3-0.13,0.78-0.14,1.45
		C250.71,111.571,249.1,111.571,249.1,111.571z M250,96.211c-6.235,0-11.31,5.07-11.31,11.31c0,6.235,5.075,11.31,11.31,11.31
		c6.235,0,11.31-5.075,11.31-11.31S256.235,96.211,250,96.211z M250,120.021c-6.895,0-12.5-5.605-12.5-12.5
		c0-6.895,5.61-12.5,12.5-12.5c6.89,0,12.5,5.61,12.5,12.5C262.5,114.416,256.895,120.021,250,120.021z"/>
</g>
<g>
	<path fill="#56B1EA" d="M287.5,107.562c0,6.905-5.595,12.5-12.5,12.5s-12.5-5.595-12.5-12.5s5.595-12.5,12.5-12.5
		c1.305,0,2.56,0.2,3.74,0.57c0.155,0.085,0.26,0.245,0.26,0.43c0,0.275-0.225,0.5-0.5,0.5c-0.055,0-0.11-0.01-0.16-0.025
		c-0.01-0.005,0,0.01,0.015,0.025c-1.06-0.32-2.185-0.5-3.355-0.5c-6.35,0-11.5,5.15-11.5,11.5c0,6.35,5.15,11.5,11.5,11.5
		s11.5-5.15,11.5-11.5c0-2.625-0.8-4.625-2-6.5c-0.045-0.015-0.245-0.33-0.5-0.5c-0.22-0.035-0.5,0-0.5,0
		c-0.595,0.01-1.31-0.155-1.5,0.5c-0.84,2.85-1.035,4.21-3,10c-0.18,0.675-0.54,0.935-1,1c-2.24,0.025-8.5,0-8.5,0
		c-0.615,0-1.215-0.445-1.5-1c-0.525-0.81-1.13-2.19-1.5-3.5c-0.46-1.545,0.58-2,1.5-2h9c0.17-0.03,1,0.03,1,0.5
		c0,0.445-0.365,0.5-1,0.5h-9c-0.89-0.065-0.545,0.84-0.5,1c0.505,1.515,1,2.5,1,2.5s0.52,1.065,1.5,1h7.5
		c0.305-0.03,0.445-0.35,0.605-0.715l3.005-9.955c0.195-0.395,0.595-0.83,1.39-0.83h1.5c0.78,0.09,1.38,0.945,2,2
		c0.005,0.01,0.005,0.015,0.005,0.015s-0.01-0.045-0.005-0.015C286.94,103.312,287.5,105.432,287.5,107.562z M270,114.062h7
		c0.515-0.115,0.5,0.5,0.5,0.5c-0.015,0.295-0.215,0.455-0.525,0.455L270,115.062c-0.255,0.07-0.545-0.305-0.5-0.5
		C269.43,114.152,269.805,114.042,270,114.062z"/>
</g>
<g>
	<path fill="#FF4743" d="M133.682,129.108c-0.53,0.385-1.155,0.725-1.865,1.02c0.015,0.015,0.045,0.055,0.08,0.11
		c0.09,0.165,0.155,0.28,0.195,0.355l0.93-0.55c0.46-0.235,0.8-0.42,1.02-0.55L133.682,129.108z M131.897,128.973h3.05v0.795
		c0.02,0.26-0.13,0.375-0.44,0.36c-0.405,0-0.66-0.01-0.77-0.03c0,0.04,0.01,0.09,0.03,0.165c0.035,0.185,0.055,0.305,0.055,0.36
		c0.29,0,0.53-0.01,0.71-0.03c0.605,0,0.91-0.265,0.91-0.795v-0.825h2.91v-0.41h-6.455V128.973L131.897,128.973z M132.392,127.653
		h5.495v0.415h-5.495V127.653z M136.072,129.548c0.825,0.37,1.475,0.705,1.95,1.02l0.305-0.47l-1.98-0.96L136.072,129.548z
		 M134.507,125.923h1.21v0.85h-1.21V125.923z M134.507,124.908h1.21v0.63h-1.21V124.908z M136.182,125.923h1.21v0.85h-1.21
		C136.182,126.773,136.182,125.923,136.182,125.923z M134.042,126.773h-1.185v-0.85h1.185V126.773z M134.042,125.538h-1.65v1.62
		h5.465v-1.62h-1.675v-0.63h2.03v-0.41h-6.175v0.41h2.005C134.042,124.908,134.042,125.538,134.042,125.538z M135.017,134.243
		c-3.69,0-6.68-2.99-6.68-6.68c0-3.69,2.99-6.68,6.68-6.68s6.68,2.99,6.68,6.68C141.697,131.253,138.707,134.243,135.017,134.243z
		 M135.017,120.063c-4.14,0-7.5,3.36-7.5,7.5s3.36,7.5,7.5,7.5s7.5-3.36,7.5-7.5S139.157,120.063,135.017,120.063z"/>
</g>
<g>
	<path fill="#35B87F" d="M177.496,130.423c1.075,1.05,2.285,2.01,3.41,2.7c1.085,0.67,2.045,1.055,2.63,1.055
		c0.52,0,1.26-0.32,1.985-0.85c0.315-0.235,0.605-0.495,0.81-0.735c0.195-0.225,0.265-0.37,0.285-0.43
		c-0.075-0.16-0.52-0.665-1.56-1.38c-0.41-0.28-0.83-0.54-1.19-0.73c-0.445-0.235-0.635-0.275-0.675-0.28
		c-0.02,0.01-0.07,0.05-0.14,0.175c-0.085,0.14-0.165,0.325-0.245,0.505c-0.095,0.22-0.19,0.445-0.31,0.63
		c-0.2,0.3-0.44,0.45-0.72,0.45h-0.015c-0.135,0-0.55-0.01-1.675-0.775c-0.62-0.425-1.295-0.97-1.8-1.465l-0.01-0.01
		c-0.495-0.505-1.04-1.18-1.465-1.8c-0.765-1.125-0.775-1.54-0.775-1.675c-0.005-0.285,0.145-0.53,0.445-0.73
		c0.185-0.12,0.415-0.22,0.635-0.315c0.18-0.08,0.365-0.16,0.505-0.245c0.125-0.07,0.165-0.12,0.175-0.14
		c-0.005-0.04-0.045-0.23-0.28-0.675c-0.19-0.36-0.45-0.78-0.73-1.19c-0.715-1.04-1.22-1.485-1.38-1.56
		c-0.06,0.02-0.205,0.09-0.43,0.285c-0.24,0.205-0.5,0.495-0.735,0.81c-0.53,0.725-0.85,1.465-0.85,1.985
		c0,0.585,0.385,1.545,1.055,2.63c0.69,1.125,1.65,2.335,2.7,3.41L177.496,130.423z M183.536,135.063
		c-0.97,0-2.22-0.645-3.095-1.185c-1.175-0.725-2.445-1.725-3.565-2.82l-0.005-0.005l-0.36-0.36c-1.095-1.12-2.095-2.39-2.82-3.565
		c-0.54-0.875-1.185-2.125-1.185-3.095c0-1.035,0.74-2.135,1.06-2.56c0.245-0.33,1.115-1.41,1.855-1.41c0.3,0,0.625,0.2,1.055,0.645
		c0.38,0.39,0.745,0.88,0.98,1.22c0.32,0.455,0.62,0.935,0.835,1.35c0.355,0.665,0.395,0.95,0.395,1.11
		c0,0.315-0.165,0.59-0.495,0.815c-0.215,0.15-0.47,0.26-0.72,0.37c-0.17,0.075-0.44,0.19-0.54,0.27
		c0.035,0.155,0.19,0.52,0.615,1.14c0.39,0.58,0.9,1.205,1.36,1.68c0.475,0.46,1.1,0.97,1.68,1.36c0.62,0.425,0.985,0.58,1.14,0.615
		c0.08-0.1,0.195-0.37,0.27-0.54c0.11-0.25,0.22-0.505,0.37-0.72c0.225-0.33,0.5-0.495,0.815-0.495c0.16,0,0.445,0.04,1.11,0.395
		c0.415,0.215,0.895,0.515,1.35,0.835c0.34,0.235,0.83,0.6,1.22,0.98c0.445,0.43,0.645,0.755,0.645,1.055
		c0,0.74-1.08,1.61-1.41,1.855C185.671,134.323,184.571,135.063,183.536,135.063z"/>
</g>
<g>
	<path fill="#FF4743" d="M120,120.063c-4.135,0-7.5,3.365-7.5,7.5c0,4.135,3.365,7.5,7.5,7.5c4.135,0,7.5-3.365,7.5-7.5
		C127.5,123.428,124.135,120.063,120,120.063z M120,121.133c3.55,0,6.43,2.88,6.43,6.43s-2.88,6.43-6.43,6.43s-6.43-2.88-6.43-6.43
		C113.57,124.013,116.45,121.133,120,121.133z M121.715,123.848c0,0-1.615,3.015-1.68,3.2h-0.02c-0.2-0.45-0.76-1.515-1.68-3.2
		h-1.06l1.97,3.385h-1.615v0.75h1.895v1.035h-1.895v0.755h1.895v1.505h0.94v-1.505h1.83v-0.755h-1.83v-1.03h1.83v-0.75h-1.57
		l1.99-3.39L121.715,123.848L121.715,123.848z"/>
</g>
<g>
	<path fill="#5B99EE" d="M150.005,133.908c-2.75,0-4.6-0.78-4.6-1.51c0-2.46,2.065-4.46,4.6-4.46s4.6,2,4.6,4.46
		C154.605,133.128,152.755,133.908,150.005,133.908z M147.015,124.003c0-1.535,1.29-2.785,2.875-2.785s2.875,1.25,2.875,2.785
		c0,1.53-1.29,2.78-2.875,2.78S147.015,125.533,147.015,124.003z M152.21,127.213c1.03-0.715,1.705-1.885,1.705-3.21
		c0-2.175-1.805-3.94-4.025-3.94s-4.025,1.765-4.025,3.94c0,1.36,0.715,2.565,1.795,3.27c-2.005,0.88-3.405,2.845-3.405,5.125
		c0,1.965,3.1,2.665,5.75,2.665s5.75-0.7,5.75-2.665C155.755,130.063,154.29,128.058,152.21,127.213z"/>
</g>
<g>
	<path fill="#5C7197" d="M165.006,123.523c-0.935,0-1.69,0.775-1.69,1.73c0,0.96,0.755,1.735,1.69,1.735s1.69-0.775,1.69-1.735
		C166.696,124.298,165.941,123.523,165.006,123.523z M165.006,127.563c-1.265,0-2.29-1.05-2.29-2.345s1.025-2.34,2.29-2.34
		s2.29,1.045,2.29,2.34S166.271,127.563,165.006,127.563z M165.006,120.783c-2.65,0-4.795,2.23-4.795,4.975
		c0,2.75,4.795,8.295,4.795,8.295s4.795-5.545,4.795-8.295C169.801,123.013,167.656,120.783,165.006,120.783z M165.006,135.063
		c0,0-5.5-6.27-5.5-9.375c0-3.105,2.46-5.625,5.5-5.625s5.5,2.52,5.5,5.625C170.506,128.793,165.006,135.063,165.006,135.063z"/>
</g>
<g>
	<path fill="#56B1EA" d="M201.661,131.743l-3.615-3.83c-0.205-0.2-0.53-0.2-0.73,0s-0.2,0.52,0,0.72l3.275,3.585h-11.035l3.27-3.585
		c0.205-0.2,0.205-0.52,0-0.72c-0.2-0.2-0.525-0.2-0.725,0l-3.735,3.895v-8.165l5.755,4.76c0.29,0.29,0.54,0.5,0.95,0.5
		c0.415,0,0.6-0.21,0.89-0.5l5.7-4.76L201.661,131.743L201.661,131.743z M200.851,122.913l-5.62,4.765
		c-0.19,0.195-0.19,0.195-0.38,0l-5.62-4.765H200.851z M201.481,122.063h-12.95c-0.565,0-1.025,0.46-1.025,1.025v8.95
		c0,0.565,0.46,1.025,1.025,1.025h12.95c0.565,0,1.025-0.46,1.025-1.025v-8.95C202.506,122.523,202.046,122.063,201.481,122.063z"/>
</g>
<g>
	<path fill="#5B99EE" d="M183.91,51.807c-1.16,1.32-2.935,1.99-5.27,1.99c-0.795,0-1.66-0.08-2.58-0.235
		c0.175-0.575,0.46-1.425,0.855-2.32c0.89-2.01,1.925-3.34,2.995-3.835c1.615-0.75,3.35-0.905,4.52-0.905
		c0.45,0,0.835,0.025,1.12,0.05C185.575,47.637,185.435,50.083,183.91,51.807z M172.85,55.823c-2.03,0-4-0.805-5.865-2.4
		c-0.655-0.565-1.2-1.29-1.61-2.16c-0.335-0.715-0.59-1.525-0.745-2.415c-0.165-0.92-0.19-1.735-0.185-2.245
		c0.26-0.035,0.61-0.06,1.03-0.06c1.355,0,3.43,0.3,5.58,1.74c0.805,0.54,1.475,1.28,1.985,2.2c0.42,0.75,0.735,1.63,0.94,2.605
		c0.23,1.075,0.27,2.04,0.27,2.605C173.89,55.757,173.415,55.823,172.85,55.823z M181.82,67.638c0,0.53-0.43,0.965-0.96,0.965
		h-10.97c-0.53,0-0.965-0.435-0.965-0.965v-7.165h12.895V67.638z M186.95,45.813l-0.065-0.535l-0.525-0.09
		c-0.035-0.005-0.795-0.135-1.93-0.135c-1.315,0-3.27,0.18-5.125,1.04c-1.415,0.655-2.67,2.2-3.72,4.58
		c-0.17,0.385-0.32,0.76-0.45,1.11c-0.215-0.72-0.49-1.385-0.825-1.985c-0.625-1.135-1.45-2.045-2.45-2.72
		c-2.455-1.64-4.83-1.985-6.385-1.985c-1.145,0-1.88,0.185-1.91,0.195l-0.49,0.125l-0.045,0.51c-0.005,0.055-0.13,1.415,0.17,3.14
		c0.18,1.02,0.47,1.96,0.86,2.8c0.5,1.065,1.17,1.96,1.99,2.665c1.18,1.01,2.425,1.75,3.71,2.205c1.015,0.36,2.055,0.54,3.09,0.54
		c0.65,0,1.205-0.07,1.62-0.15v1.9h-6.985v8.615c0,1.33,1.075,2.415,2.405,2.415h10.97c1.325,0,2.405-1.085,2.405-2.415v-8.615
		h-7.35v-4.015c0.965,0.16,1.88,0.24,2.725,0.24c2.77,0,4.91-0.835,6.36-2.485C187.435,49.997,186.975,45.983,186.95,45.813z"/>
</g>
<g>
	<path fill="#F67677" d="M260.713,45.978H243.75c-0.986,0-1.787,0.796-1.787,1.782v1.778h1.787V47.76h16.963v10.68h-1.783v1.782
		h1.783c0.986,0,1.787-0.797,1.787-1.782V47.76C262.5,46.775,261.699,45.978,260.713,45.978z M252.231,58.886
		c0.74,0,1.338-0.597,1.338-1.333s-0.597-1.333-1.338-1.333c-0.74,0-1.338,0.597-1.338,1.333S251.491,58.886,252.231,58.886z
		 M247.768,58.886c0.74,0,1.338-0.597,1.338-1.333s-0.597-1.333-1.338-1.333c-0.74,0-1.338,0.597-1.338,1.333
		S247.028,58.886,247.768,58.886z M243.305,58.886c0.736,0,1.338-0.597,1.338-1.333s-0.602-1.333-1.338-1.333
		c-0.74,0-1.342,0.597-1.342,1.333S242.565,58.886,243.305,58.886z M256.25,62.895h-10.713h-0.74l-0.523,0.523l-1.417,1.412v-0.158
		v-1.778h-1.787h-1.783V52.21h16.962v10.685H256.25z M256.25,50.432h-16.963c-0.986,0-1.787,0.796-1.787,1.778v10.685
		c0,0.981,0.801,1.778,1.787,1.778h1.783v4.453l4.467-4.453h10.713c0.986,0,1.787-0.796,1.787-1.778V52.21
		C258.037,51.228,257.236,50.432,256.25,50.432z"/>
</g>
<g>
	<path fill="#5C7197" d="M224.22,65.368h1.56v-1.565h-1.56V65.368z M229.69,55.127c0-2.54-2.105-4.605-4.69-4.605
		s-4.685,2.065-4.685,4.605c0,0.015,1.555,0.01,1.555,0c0-1.695,1.405-3.075,3.13-3.075s3.13,1.38,3.13,3.075
		s-1.405,3.075-3.13,3.075c-0.43,0-0.78,0.345-0.78,0.765v3.245c0-0.02,1.56,0.045,1.56,0v-2.54
		C227.995,59.302,229.69,57.407,229.69,55.127z M235.94,45.052h-21.875c-0.865,0-1.565,0.7-1.565,1.56v21.88
		c0,0.86,0.7,1.56,1.565,1.56h17.965c0.435,0,0.785-0.35,0.785-0.78c0-0.435-0.35-0.78-0.785-0.78h-17.185
		c-0.43,0-0.78-0.35-0.78-0.785v-20.31c0-0.435,0.35-0.785,0.78-0.785h20.31c0.435,0,0.785,0.35,0.785,0.785v22.655
		c0.86,0,1.56-0.7,1.56-1.56v-21.88C237.5,45.753,236.8,45.052,235.94,45.052z"/>
</g>
<g>
	<path fill="#FFB400" d="M316.879,66.623h16.246l1.079-9.025c0.029-0.246,0.196-0.458,0.429-0.546
		c0.921-0.354,1.516-1.212,1.516-2.187c0-1.296-1.063-2.354-2.366-2.354c-1.304,0-2.363,1.058-2.363,2.354
		c0,0.371,0.096,0.741,0.288,1.096c0.15,0.284,0.079,0.633-0.171,0.837l-0.296,0.242c-0.121,0.096-0.271,0.15-0.425,0.15h-2.325
		c-0.262,0-0.5-0.15-0.612-0.387l-1.059-2.237c-0.129-0.271-0.063-0.596,0.167-0.792c0.671-0.579,1.054-1.408,1.054-2.271
		c0-1.666-1.366-3.021-3.042-3.021c-1.675,0-3.041,1.354-3.041,3.021c0,0.862,0.387,1.691,1.054,2.271
		c0.229,0.196,0.296,0.521,0.171,0.792l-1.063,2.237c-0.109,0.237-0.346,0.387-0.609,0.387h-2.325c-0.159,0-0.309-0.054-0.429-0.15
		l-0.296-0.242c-0.25-0.204-0.321-0.554-0.167-0.837c0.188-0.354,0.283-0.725,0.283-1.096c0-1.296-1.059-2.354-2.362-2.354
		c-1.304,0-2.367,1.058-2.367,2.354c0,0.975,0.596,1.833,1.517,2.187c0.233,0.087,0.4,0.3,0.429,0.546L316.879,66.623z
		 M333.721,67.969H316.28c-0.342,0-0.634-0.254-0.671-0.591l-1.108-9.242c-1.229-0.633-2-1.875-2-3.271
		c0-2.037,1.667-3.696,3.717-3.696c2.05,0,3.716,1.659,3.716,3.696c0,0.333-0.05,0.658-0.141,0.979h1.292l0.671-1.421
		c-0.733-0.8-1.146-1.841-1.146-2.921c0-2.408,1.971-4.366,4.391-4.366c2.421,0,4.392,1.958,4.392,4.366
		c0,1.079-0.413,2.121-1.146,2.921l0.671,1.421h1.292c-0.096-0.321-0.141-0.646-0.141-0.979c0-2.037,1.667-3.696,3.716-3.696
		c2.05,0,3.717,1.659,3.717,3.696c0,1.396-0.771,2.637-2,3.271l-1.109,9.241C334.354,67.715,334.066,67.969,333.721,67.969z"/>
</g>
<g>
	<path fill="#FF6600" d="M283.08,68.357h-16.16v-18.49h2.095v6.12c0,1.66,1.375,3.01,3.07,3.01c1.69,0,3.07-1.35,3.07-3.01v-3.52
		c0-0.485-0.39-0.875-0.865-0.875c-0.48,0-0.865,0.39-0.865,0.875v3.52c0,0.69-0.6,1.255-1.34,1.255s-1.345-0.565-1.345-1.255v-6.12
		h9.08v2.77c0,0.28,0.225,0.505,0.5,0.505h2.76L283.08,68.357L283.08,68.357z M270.74,48.063c0-0.69,0.605-1.255,1.345-1.255
		s1.34,0.565,1.34,1.255c0,0.04,0.005,0.075,0.01,0.11h-2.695V48.063L270.74,48.063z M284.5,52.022l-3.595-3.605
		c-0.155-0.155-0.365-0.245-0.585-0.245h-5.18c0.005-0.035,0.01-0.07,0.01-0.11c0-1.66-1.375-3.01-3.065-3.01
		c-1.695,0-3.07,1.35-3.07,3.01v0.11h-2.93c-0.46,0-0.835,0.38-0.835,0.85v20.18c0,0.47,0.375,0.85,0.835,0.85h17.83
		c0.46,0,0.835-0.38,0.835-0.85V52.627C284.75,52.397,284.66,52.182,284.5,52.022z"/>
</g>
<path fill="#F7BD62" d="M128.169,54.381c0-0.78,0.635-1.41,1.415-1.41s1.415,0.63,1.415,1.41c0,0.775-0.635,1.405-1.415,1.405
	C128.803,55.786,128.169,55.156,128.169,54.381z M119.068,54.381c0-0.78,0.635-1.41,1.415-1.41s1.415,0.63,1.415,1.41
	c0,0.775-0.635,1.405-1.415,1.405S119.068,55.156,119.068,54.381z M130.404,50.046h-1.3c0-3.06-2.89-3.73-4-3.73
	c-1.115,0-4.005,0.67-4.005,3.73h-1.3c0-3.685,3.17-5.025,5.305-5.025C127.233,45.021,130.404,46.361,130.404,50.046z
	 M116.608,68.726h16.79l-1.15-16.2h-14.24L116.608,68.726z M134.098,70.021h-18.2c-0.18,0-0.355-0.075-0.48-0.21
	c-0.12-0.135-0.185-0.31-0.165-0.495l1.51-17.495c0.025-0.335,0.31-0.59,0.645-0.59h15.45c0.34,0,0.625,0.26,0.65,0.6l1.24,17.495
	c0.01,0.18-0.05,0.355-0.175,0.49C134.448,69.946,134.278,70.021,134.098,70.021z"/>
<g>
	<path fill="#56B1EA" d="M155.403,50.077h-1.3c0-3.06-2.89-3.73-4-3.73c-1.115,0-4.005,0.67-4.005,3.73h-1.3
		c0-3.685,3.17-5.025,5.305-5.025C152.233,45.052,155.403,46.393,155.403,50.077z M141.608,68.758h16.79l-1.15-16.2h-14.24
		L141.608,68.758z M159.098,70.053h-18.2c-0.18,0-0.355-0.075-0.48-0.21c-0.12-0.135-0.185-0.31-0.165-0.495l1.51-17.495
		c0.025-0.335,0.31-0.59,0.645-0.59h15.45c0.34,0,0.625,0.26,0.65,0.6l1.24,17.495c0.01,0.18-0.05,0.355-0.175,0.49
		C159.448,69.978,159.278,70.053,159.098,70.053z"/>
	<g>
		
			<text transform="matrix(1 0 0 1 144.9999 65.7461)" fill="#56B1EA" font-family="'AdobeSongStd-Light-GBpc-EUC-H'" font-size="10">企</text>
	</g>
</g>
<g>
	<path fill="#35B87F" d="M312.5,59.875c0-2.178-1.221-4.072-3.024-5.053c-0.081-5.144-4.288-9.288-9.476-9.288
		s-9.394,4.149-9.476,9.293c-1.803,0.976-3.024,2.87-3.024,5.048c0,2.658,1.827,4.894,4.303,5.553l-1.298,4.144h1.307l0.428-1.288
		l1.169-3.87c-0.029,0-0.057,0.009-0.092,0.009c-2.5,0-4.524-2.019-4.524-4.509c0-1.481,0.726-2.779,1.831-3.601
		c0.491,3.437,2.837,6.279,6,7.481l-1.399,4.49l-0.399,1.288h1.294l0.432-1.288l1.851-5.307c-3.759-0.741-6.591-4.038-6.591-8
		c0-4.505,3.663-8.154,8.187-8.154c4.524,0,8.188,3.649,8.188,8.154c0,3.961-2.831,7.259-6.591,8l1.851,5.307l0.432,1.288h1.294
		l-0.404-1.288h0.005l-1.399-4.49c3.163-1.202,5.514-4.043,6.005-7.481c1.101,0.822,1.827,2.12,1.827,3.601
		c0,2.49-2.024,4.509-4.519,4.509c-0.033,0-0.063-0.009-0.091-0.009l1.163,3.87l0,0l0.428,1.288h1.307l-1.294-4.144
		C310.678,64.769,312.5,62.533,312.5,59.875z M304.312,55.408h-1.294c0,1.658-1.351,3.005-3.019,3.005s-3.019-1.346-3.019-3.005
		h-1.293c0,2.37,1.932,4.288,4.313,4.288S304.312,57.778,304.312,55.408z"/>
</g>
<g>
	<path fill="#FF4743" d="M208.604,63.707c0.855-1.485,1.54-3.08,1.645-5.145c-3.28,3.195-3.564,3.355-4.974,2.505
		c0.44-0.12,0.85-0.23,1.05-0.575c2.17-1.42,3.819-3.235,3.919-6.615c-1.115,1.055-1.74,2.245-3.434,2.37
		c1.45-1.91,1.885-4.235,2.175-6.64c-0.02-1.45,0.105-2.865-0.22-4.555c-0.535,1.06-0.76,2.17-1.48,2.935
		c-0.18,0.315-0.35,0.655-0.55,0.955c-1.535,2.255-3.914,3.545-6.349,4.765c-1.27,0.38-2.535,0.775-3.825,1.135
		c-0.19,0.055-0.455,0.285-0.71-0.11c-0.195-0.29,0.15-0.33,0.205-0.51c0.44-1.295,1.76-1.655,2.715-2.39
		c0.61-0.39,1.42-0.555,1.8-1.23c-0.925,0.035-1.805,0.105-2.535,0.48c-2.035,0.355-3.559,1.4-4.96,2.61
		c-0.415-0.16-0.52,0.16-0.65,0.35c-1.46,1.875-2.645,3.95-2.655,6.725c-0.02,1.445-0.155,2.875,0.685,4.52
		c0.31-3.16,1.585-5.5,4.504-6.705c-0.39,0.89-1.125,1.39-0.81,2.785c0.75-1.54,1.6-2.655,2.895-3.37c0.58,0.725-0.42,0.8-0.1,1.57
		c1.73-1.175,3.48-2.265,5.514-2.905c0.105,0.13,0.215,0.245,0.32,0.37c-2.58,2.02-4.734,4.32-4.255,8.77
		c1.19-0.855,1.78-1.855,2.18-3.01c0.455,0.3,0.27,0.615,0.395,0.91c-0.32,1.915-0.88,3.645-2.36,4.77
		c-0.855,0.665-2.02,0.81-2.945,1.385c3.719,0.645,6.579-0.365,9.079-2.115C206.514,66.777,207.674,65.332,208.604,63.707
		L208.604,63.707z"/>
</g>
<path fill="#FFB400" d="M140.156,100.626l1.295,1.27l1.29-1.27l-1.29-1.27L140.156,100.626z M159.631,108.221l-1.4,1.395l1.41,1.405
	l1.4-1.395L159.631,108.221z M160.726,100.626l-1.29-1.27l-1.295,1.27l1.295,1.27L160.726,100.626z M151.996,113.051h-4.055
	c0-2.86-3.125-2.75-3.125-6.525c0-3.235,2.06-5.54,5.155-5.54s5.12,2.305,5.12,5.54
	C155.091,110.301,151.996,110.361,151.996,113.051z M149.971,99.086c-3.965,0-6.965,3.335-6.965,7.49c0,2.01,0.705,3.385,1.88,4.275
	h-0.125c0,0,1.945,2.21,1.945,3.45l0.655,0.685h5.225l0.655-0.685c0-1.42,1.425-3.01,1.765-3.37c1.255-0.89,2.02-2.29,2.02-4.355
	C157.026,102.421,153.941,99.086,149.971,99.086z M139.041,109.846l1.745,1.005l0.995-1.72l-1.745-1L139.041,109.846z
	 M151.376,96.416l-1.4-1.395l-1.41,1.405l1.4,1.39L151.376,96.416z M146.971,118.281c0,0,0.645,1.74,3,1.74
	c2.36,0,2.97-2.05,2.97-2.05v-1.955h-5.97V118.281z"/>
<g>
	<path fill="#FF6600" d="M181.825,95.286c3.17,0,5.735,2.52,5.735,5.63h-1.155c0-2.485-2.045-4.5-4.58-4.5V95.286z M181.825,97.411
		c1.975,0,3.575,1.57,3.575,3.505h-1.06c0-1.36-1.125-2.47-2.515-2.47V97.411z M182.425,99.476c0.445,0,0.81,0.355,0.81,0.795
		c0,0.435-0.365,0.79-0.81,0.79c-0.44,0-0.805-0.355-0.805-0.79C181.62,99.831,181.985,99.476,182.425,99.476z M165.91,95.506
		l14.15,4.73c0.65,0.215,1.42,0.82,1.42,1.485l-0.02,5.695h-0.54v-5.49c0-0.67-0.575-1.1-1.25-1.225l-11.055-2.09
		c-0.675-0.13-1.665,0.55-1.665,1.225v16.05c0,0.675,0.99,1.295,1.665,1.23l11.055-1.065c0.68-0.06,1.25-0.555,1.25-1.225v-7.415
		h0.54l-0.03,7.555c0,0.67-0.575,1.33-1.225,1.465l-15.31,3.26c-1.56,0.33-2.335-0.39-2.335-1.815v-20.35
		C162.56,95.831,163.735,94.776,165.91,95.506z"/>
</g>
<g>
	<path fill="#5B99EE" d="M204.715,117.566c0.685-0.815,1.28-1.805,1.76-2.94c0.515,0.205,1,0.435,1.455,0.69
		C207.01,116.246,205.915,117.006,204.715,117.566z M192.135,115.256c0.465-0.255,0.955-0.49,1.48-0.69
		c0.485,1.165,1.095,2.17,1.79,3C194.18,116.996,193.07,116.211,192.135,115.256z M195.405,97.476
		c-0.695,0.83-1.3,1.835-1.785,2.995c-0.525-0.2-1.015-0.435-1.48-0.69C193.075,98.826,194.18,98.046,195.405,97.476z
		 M207.925,99.721c-0.455,0.255-0.935,0.49-1.45,0.695c-0.48-1.135-1.075-2.125-1.76-2.94
		C205.915,98.036,207.005,98.791,207.925,99.721z M207.79,106.811c-0.06-1.83-0.35-3.54-0.83-5.065
		c0.68-0.27,1.315-0.58,1.905-0.925c1.29,1.685,2.1,3.745,2.245,5.99C211.11,106.811,207.79,106.811,207.79,106.811z
		 M207.79,108.231h3.32c-0.145,2.24-0.955,4.3-2.235,5.985c-0.59-0.345-1.235-0.655-1.915-0.925
		C207.44,111.771,207.73,110.056,207.79,108.231z M200.77,112.066v-3.835h5.605c-0.06,1.655-0.32,3.215-0.755,4.6
		C204.125,112.386,202.48,112.131,200.77,112.066z M200.77,118.531v-5.05c1.54,0.06,3.015,0.285,4.355,0.675
		C204.105,116.536,202.55,118.186,200.77,118.531z M199.35,113.476v5.055c-1.79-0.35-3.35-2.01-4.375-4.415
		C196.325,113.736,197.81,113.526,199.35,113.476z M193.745,108.231h5.605v3.83c-1.71,0.05-3.365,0.29-4.865,0.72
		C194.06,111.411,193.8,109.866,193.745,108.231z M192.325,108.231c0.065,1.805,0.345,3.495,0.815,5
		c-0.69,0.265-1.34,0.575-1.94,0.92c-1.255-1.67-2.045-3.71-2.19-5.92H192.325z M192.325,106.811h-3.315
		c0.145-2.215,0.935-4.255,2.195-5.93c0.6,0.345,1.25,0.655,1.94,0.92C192.675,103.311,192.39,105.001,192.325,106.811z
		 M199.35,102.976v3.835h-5.605c0.06-1.645,0.315-3.195,0.745-4.57C195.995,102.666,197.64,102.926,199.35,102.976z M199.35,96.511
		v5.045c-1.54-0.045-3.015-0.27-4.365-0.645C196.01,98.516,197.565,96.861,199.35,96.511z M200.77,101.551v-5.04
		c1.775,0.345,3.325,1.985,4.35,4.36C203.78,101.256,202.31,101.491,200.77,101.551z M200.77,102.971
		c1.71-0.065,3.35-0.33,4.845-0.775c0.435,1.385,0.7,2.955,0.76,4.62h-5.605V102.971z M200.06,95.021
		c-3.605,0-6.85,1.545-9.135,3.995l-0.035-0.025l-0.285,0.38c-1.89,2.19-3.045,5.035-3.045,8.15c0,3.13,1.165,5.99,3.075,8.185
		l0.255,0.335l0.03-0.02c2.285,2.455,5.53,4,9.14,4c6.895,0,12.5-5.61,12.5-12.5C212.56,100.626,206.95,95.021,200.06,95.021z"/>
</g>
<g>
	<path fill="#35B87F" d="M231.685,96.986c2.16,0,3.92,1.775,3.92,3.95c0,2.18-1.76,3.95-3.92,3.95c-2.165,0-3.925-1.77-3.925-3.95
		C227.76,98.761,229.52,96.986,231.685,96.986z M231.685,106.606c3.105,0,5.625-2.545,5.625-5.67s-2.525-5.665-5.625-5.665
		c-3.105,0-5.63,2.54-5.63,5.665C226.055,104.061,228.58,106.606,231.685,106.606z M235.795,117.601c0,0.25-0.205,0.455-0.45,0.455
		h-7.15c-0.25,0-0.455-0.205-0.455-0.455v-6.85c0-0.25,0.205-0.455,0.455-0.455h7.15c0.245,0,0.45,0.205,0.45,0.455V117.601z
		 M235.345,108.581h-7.15c-1.19,0-2.16,0.975-2.16,2.17v6.85c0,1.195,0.97,2.17,2.16,2.17h7.15c1.185,0,2.155-0.975,2.155-2.17
		v-6.85C237.5,109.556,236.53,108.581,235.345,108.581z M222.26,104.351c0,0.25-0.205,0.455-0.455,0.455h-7.15
		c-0.245,0-0.45-0.205-0.45-0.455v-6.85c0-0.25,0.205-0.45,0.45-0.45h7.15c0.25,0,0.455,0.2,0.455,0.45V104.351z M221.805,95.331
		h-7.15c-1.185,0-2.155,0.975-2.155,2.17v6.85c0,1.195,0.97,2.17,2.155,2.17h7.15c1.19,0,2.16-0.975,2.16-2.17v-6.85
		C223.965,96.306,222.995,95.331,221.805,95.331z M222.26,117.601c0,0.25-0.205,0.455-0.455,0.455h-7.15
		c-0.245,0-0.45-0.205-0.45-0.455v-6.85c0-0.25,0.205-0.455,0.45-0.455h7.15c0.25,0,0.455,0.205,0.455,0.455V117.601z
		 M221.805,108.581h-7.15c-1.185,0-2.155,0.975-2.155,2.17v6.85c0,1.195,0.97,2.17,2.155,2.17h7.15c1.19,0,2.16-0.975,2.16-2.17
		v-6.85C223.965,109.556,222.995,108.581,221.805,108.581z"/>
</g>
<g>
	<path fill="#5C7197" d="M133.356,115.007c-0.495,0.06-0.83,0.315-0.875,0.84c-0.04,0.475,0.405,0.91,0.89,0.91
		c0.495,0,0.905-0.415,0.875-0.915C134.216,115.302,133.891,115.052,133.356,115.007z M120.131,106.302
		c0.59,0.615,1.17,1.245,1.775,1.85c1.15,1.155,2.64,1.19,3.75,0.105c1.14-1.12,1.125-2.585-0.075-3.77
		c-0.61-0.605-1.26-1.17-1.835-1.845c1.545-0.46,2.945-0.205,4.2,0.665c1.985,1.385,2.73,3.725,1.92,6
		c-0.155,0.435-0.03,0.65,0.245,0.92c1.485,1.45,2.97,2.905,4.44,4.37c0.845,0.84,0.8,1.85-0.08,2.61
		c-0.71,0.61-1.595,0.59-2.31-0.11c-1.49-1.45-2.965-2.915-4.425-4.39c-0.34-0.345-0.6-0.43-1.1-0.265
		c-1.96,0.66-3.745,0.255-5.235-1.16c-1.4-1.335-1.825-2.995-1.485-4.855L120.131,106.302z M132.956,110.707
		c-0.135-0.11-0.205-0.175-0.28-0.235c-0.775-0.575-1.055-1.23-0.905-2.29c0.555-3.885-2.6-7.08-5.785-7.425
		c-4.015-0.435-7.32,2.085-7.83,5.935c-0.61,4.595,3.46,8.44,8.035,7.57c0.515-0.1,0.865,0.01,1.2,0.38
		c0.24,0.265,0.54,0.47,0.91,0.79c-1.045,0.545-1.06,1.4-1.005,2.28c0.05,0.865-0.11,1.7-0.97,2.05
		c-0.945,0.38-2.01,0.46-2.89-0.115c-0.405-0.26-0.615-0.91-0.775-1.43c-0.12-0.39-0.02-0.85-0.03-1.28
		c-0.015-0.68-0.33-1.19-0.965-1.455s-1.215-0.155-1.715,0.33c-0.305,0.3-0.605,0.61-0.925,0.9c-0.61,0.56-1.47,0.725-2.095,0.27
		c-0.55-0.4-1.055-0.9-1.46-1.445c-0.44-0.6-0.265-1.52,0.28-2.1c0.29-0.31,0.615-0.595,0.915-0.905
		c0.435-0.445,0.595-0.985,0.405-1.575c-0.2-0.62-0.655-1.005-1.3-1.09c-0.495-0.065-1-0.05-1.505-0.075
		c-1.08-0.055-1.71-0.68-1.755-1.765c-0.015-0.33-0.015-0.665,0-1c0.04-1.115,0.745-1.8,1.865-1.825
		c0.405-0.01,0.815,0.015,1.22-0.01c0.675-0.04,1.2-0.35,1.45-0.985c0.25-0.635,0.11-1.215-0.38-1.705
		c-0.27-0.27-0.54-0.54-0.805-0.815c-0.115-0.115-0.235-0.24-0.32-0.38c-0.59-0.975-0.24-1.945,1.085-3.03
		c0.77-0.63,1.705-0.6,2.46,0.09c0.315,0.295,0.61,0.61,0.925,0.895c0.51,0.465,1.11,0.565,1.73,0.3
		c0.59-0.255,0.925-0.725,0.92-1.4c-0.005-0.455-0.005-0.91,0.03-1.36c0.06-0.875,0.63-1.56,1.485-1.68c0.56-0.08,1.15-0.08,1.71,0
		c0.81,0.11,1.39,0.82,1.43,1.65c0.025,0.475-0.02,0.955,0.02,1.43c0.055,0.66,0.355,1.165,1.01,1.425
		c0.665,0.265,1.215,0.095,1.705-0.38c0.205-0.195,0.4-0.41,0.6-0.61c0.135-0.135,0.27-0.275,0.42-0.39
		c0.955-0.735,2.025-0.425,3.175,0.915c0.705,0.82,0.655,1.79-0.115,2.555c-0.305,0.3-0.625,0.59-0.89,0.925
		c-0.42,0.52-0.555,1.125-0.245,1.74c0.29,0.57,0.8,0.865,1.455,0.865c0.41,0,0.815-0.015,1.22,0.005
		c0.97,0.045,1.66,0.615,1.78,1.54c0.065,0.515,0.065,1.05,0,1.565c-0.125,0.915-0.85,1.51-1.785,1.545
		c-0.285,0.01-0.575,0.02-0.86-0.005C134.061,109.842,133.446,110.072,132.956,110.707z"/>
</g>
<polygon fill="#C7C7CC" points="291.225,133.09 292.615,134.563 299.225,127.563 297.835,126.09 292.615,120.563 291.225,122.036 
	296.44,127.563 "/>
<g>
	<g>
		<path fill="#FFFFFF" stroke="#BBBBBB" stroke-linecap="square" stroke-miterlimit="10" d="M161.001,168.477
			c0-2.135,0.749-2.873,2.921-2.873h27.159c2.172,0,2.921,0.738,2.921,2.873v27.254c0,2.135-0.749,2.873-2.921,2.873h-27.159
			c-2.172,0-2.921-0.738-2.921-2.873V168.477z"/>
	</g>
	<path fill="#ABB4BB" d="M174.767,188.777c0.266,0,0.527,0.049,0.778,0.146c0.236,0.097,0.453,0.238,0.64,0.432
		c0.094,0.097,0.177,0.194,0.246,0.296c0.074,0.107,0.133,0.214,0.177,0.325c0.113,0.257,0.167,0.514,0.167,0.781
		c0,0.262-0.054,0.514-0.167,0.752c-0.094,0.223-0.236,0.442-0.424,0.65c-0.192,0.175-0.409,0.315-0.65,0.417
		c-0.246,0.102-0.502,0.155-0.773,0.155c-0.281,0-0.542-0.049-0.778-0.146c-0.236-0.112-0.448-0.252-0.64-0.432
		c-0.187-0.204-0.33-0.422-0.424-0.645c-0.098-0.238-0.143-0.49-0.143-0.752c0-0.267,0.044-0.524,0.143-0.781
		c0.044-0.112,0.103-0.218,0.172-0.325c0.074-0.102,0.158-0.204,0.251-0.296c0.064-0.068,0.133-0.121,0.212-0.17l0.192-0.146
		c0.079-0.049,0.158-0.087,0.236-0.116c0.064-0.019,0.123-0.039,0.187-0.063s0.128-0.039,0.192-0.049l0.202-0.024
		c0.069-0.005,0.138-0.01,0.197-0.01L174.767,188.777L174.767,188.777z M183.687,188.826c0.128,0,0.261,0.01,0.394,0.034
		s0.261,0.063,0.389,0.112c0.251,0.092,0.468,0.238,0.64,0.432c0.187,0.189,0.34,0.398,0.448,0.621
		c0.098,0.243,0.143,0.495,0.143,0.767c0,0.126-0.01,0.262-0.034,0.398c-0.025,0.136-0.059,0.257-0.108,0.369
		c-0.108,0.223-0.261,0.442-0.448,0.645c-0.172,0.18-0.389,0.315-0.64,0.408c-0.236,0.116-0.497,0.17-0.778,0.17
		c-0.286,0-0.547-0.053-0.783-0.17c-0.251-0.112-0.458-0.247-0.616-0.408c-0.187-0.204-0.33-0.422-0.428-0.645
		c-0.108-0.238-0.163-0.495-0.163-0.767c0-0.126,0.01-0.257,0.034-0.383s0.069-0.257,0.128-0.383
		c0.099-0.223,0.241-0.432,0.428-0.621c0.079-0.097,0.172-0.18,0.286-0.252c0.108-0.073,0.222-0.131,0.33-0.18
		c0.079-0.034,0.163-0.063,0.246-0.082c0.089-0.024,0.177-0.044,0.261-0.049c0.089-0.01,0.177-0.015,0.276-0.015h-0.005
		L183.687,188.826L183.687,188.826z M187.288,176.654c0.409,0,0.724,0.053,0.946,0.165c0.113,0.049,0.207,0.107,0.286,0.17
		s0.143,0.136,0.187,0.214c0.099,0.16,0.138,0.33,0.118,0.505c0,0.063-0.005,0.121-0.01,0.18l-0.025,0.155
		c-0.005,0.049-0.02,0.097-0.034,0.146l-0.286,0.786l-0.448,1.32l-0.497,1.412l-0.379,1.131c-0.094,0.272-0.202,0.505-0.32,0.704
		c-0.118,0.199-0.246,0.359-0.389,0.471c-0.286,0.223-0.63,0.335-1.044,0.335h-11.264l0.33,1.917h10.796
		c0.694,0,1.039,0.296,1.039,0.883c0,0.291-0.069,0.539-0.212,0.747c-0.128,0.204-0.394,0.311-0.808,0.311h-11.245
		c-0.094,0-0.182-0.01-0.271-0.024c-0.084-0.015-0.163-0.039-0.236-0.063c-0.069-0.024-0.138-0.058-0.202-0.107
		c-0.187-0.126-0.345-0.296-0.473-0.5c-0.064-0.097-0.123-0.204-0.177-0.315c-0.054-0.112-0.103-0.228-0.153-0.359
		c-0.079-0.301-0.133-0.534-0.167-0.694l-0.118-0.621l-0.236-1.223l-0.305-1.655l-0.36-1.844l-0.921-4.819h-1.611
		c-0.222,0-0.394-0.044-0.522-0.141c-0.138-0.112-0.266-0.243-0.374-0.383c-0.034-0.097-0.069-0.184-0.108-0.267
		c-0.039-0.078-0.069-0.16-0.084-0.238c-0.015-0.083-0.03-0.16-0.034-0.243c-0.01-0.078-0.015-0.15-0.015-0.214
		c0-0.286,0.098-0.529,0.286-0.718c0.113-0.083,0.231-0.146,0.355-0.194c0.128-0.049,0.271-0.068,0.429-0.068h2.177
		c0.286,0,0.512,0.039,0.685,0.116l0.227,0.146c0.069,0.049,0.138,0.102,0.202,0.165c0.094,0.146,0.158,0.281,0.187,0.408
		l0.118,0.383c0.015,0.068,0.039,0.184,0.074,0.359v0.121l0.094,0.626l0.118,0.815L187.288,176.654L187.288,176.654z"/>
</g>
<path fill="#F46767" d="M163.182,147.925l-7.105,7.1c-0.14,0.14-0.38,0.125-0.54-0.035l-0.475-0.475l-3.185-3.18
	c-0.16-0.16-0.16-0.42,0-0.58l0.87-0.87c0.16-0.16,0.415-0.16,0.575,0l2.505,2.505l5.905-5.91c0.145-0.14,0.385-0.125,0.545,0.035
	l0.87,0.865C163.307,147.54,163.322,147.785,163.182,147.925z M157.517,140.11c-5.8,0-10.5,4.7-10.5,10.5s4.7,10.5,10.5,10.5
	s10.5-4.7,10.5-10.5S163.317,140.11,157.517,140.11z"/>
<circle fill="#FFFFFF" stroke="#C9CBCE" stroke-linecap="round" stroke-linejoin="round" stroke-miterlimit="10" cx="187.506" cy="150.61" r="10"/>
<g>
	<path fill="#EB8989" d="M258.79,132.251h-7.579v-11.25h7.579V132.251L258.79,132.251z M256.896,134.126h-3.789v-0.938h3.789
		V134.126z M258.79,120.063h-7.579c-0.521,0-0.947,0.422-0.947,0.938v13.125c0,0.516,0.426,0.938,0.947,0.938h7.579
		c0.521,0,0.947-0.422,0.947-0.938v-13.125C259.737,120.485,259.311,120.063,258.79,120.063z"/>
</g>
<g>
	<path fill="#EC8989" d="M210.006,133.907c-2.773,0-4.636-0.781-4.636-1.509c0-2.462,2.082-4.46,4.636-4.46s4.636,1.999,4.636,4.46
		C214.642,133.126,212.778,133.907,210.006,133.907z M206.992,124.003c0-1.535,1.302-2.784,2.898-2.784s2.898,1.249,2.898,2.784
		c0,1.531-1.302,2.779-2.898,2.779S206.992,125.534,206.992,124.003z M212.23,127.21c1.034-0.71,1.716-1.884,1.716-3.207
		c0-2.175-1.819-3.94-4.057-3.94s-4.057,1.765-4.057,3.94c0,1.363,0.718,2.568,1.81,3.274c-2.019,0.878-3.433,2.841-3.433,5.122
		c0,1.968,3.121,2.665,5.795,2.665s5.795-0.697,5.795-2.665C215.801,130.064,214.325,128.057,212.23,127.21z"/>
</g>
<g>
	<path fill="#F9BF50" d="M247.356,127.558c-0.005-0.864-0.177-1.728-0.514-2.529c-0.332-0.795-0.83-1.532-1.452-2.147
		s-1.371-1.103-2.186-1.437c-0.407-0.164-0.83-0.292-1.264-0.371c-0.434-0.085-0.873-0.122-1.318-0.122
		c-0.439,0-0.879,0.048-1.313,0.133c-0.429,0.09-0.852,0.217-1.254,0.387c-0.407,0.17-0.793,0.376-1.152,0.62
		c-0.364,0.244-0.702,0.52-1.007,0.827c-0.616,0.61-1.104,1.341-1.436,2.137c-0.327,0.79-0.498,1.649-0.493,2.502
		c0,0.429,0.037,0.859,0.123,1.278c0.08,0.419,0.209,0.832,0.37,1.23c0.332,0.795,0.82,1.522,1.436,2.137
		c0.305,0.302,0.643,0.583,1.007,0.827c0.359,0.244,0.745,0.451,1.152,0.62c0.402,0.17,0.825,0.297,1.254,0.382
		c0.434,0.09,0.873,0.133,1.313,0.138c0.445,0,0.884-0.037,1.318-0.122s0.857-0.207,1.264-0.376
		c0.814-0.329,1.564-0.822,2.186-1.431c0.621-0.615,1.12-1.352,1.452-2.152C247.179,129.291,247.351,128.427,247.356,127.558
		L247.356,127.558z M247.501,127.558c0,0.885-0.161,1.771-0.477,2.603c-0.316,0.832-0.793,1.617-1.404,2.301
		c-0.605,0.684-1.355,1.267-2.207,1.702c-0.209,0.106-0.429,0.207-0.654,0.297c-0.225,0.085-0.455,0.164-0.686,0.233
		c-0.236,0.064-0.477,0.122-0.718,0.164c-0.118,0.021-0.241,0.042-0.364,0.058l-0.182,0.021l-0.091,0.011l-0.048,0.005l-0.032,0.005
		h-0.016h-0.043l-0.048,0.005l-0.091,0.005l-0.188,0.011c-0.123,0.005-0.252,0.005-0.375,0.005c-0.252-0.005-0.504-0.016-0.75-0.048
		c-0.252-0.027-0.504-0.069-0.75-0.122c-0.129-0.027-0.252-0.058-0.375-0.09s-0.241-0.069-0.364-0.111
		c-0.975-0.318-1.891-0.838-2.662-1.532c-0.771-0.689-1.404-1.543-1.827-2.492c-0.054-0.122-0.107-0.239-0.155-0.361
		c-0.043-0.122-0.086-0.244-0.129-0.371c-0.038-0.122-0.075-0.249-0.113-0.371c-0.032-0.127-0.064-0.254-0.091-0.382
		c-0.054-0.254-0.096-0.509-0.118-0.769c-0.016-0.127-0.027-0.26-0.032-0.387l-0.011-0.196v-0.095v-0.048v-0.053v-0.095l0.005-0.095
		l0.005-0.196c0.005-0.127,0.016-0.26,0.032-0.387c0.027-0.26,0.07-0.514,0.123-0.769l0.043-0.191l0.048-0.191
		c0.032-0.127,0.07-0.249,0.113-0.371c0.075-0.249,0.171-0.493,0.279-0.732c0.429-0.949,1.061-1.803,1.832-2.492
		c0.771-0.689,1.688-1.209,2.657-1.527c0.488-0.159,0.986-0.265,1.489-0.323c0.252-0.027,0.504-0.042,0.75-0.048
		c0.129,0,0.252,0,0.375,0.005l0.188,0.011l0.091,0.005l0.096,0.005l0.091,0.011l0.091,0.011l0.182,0.021
		c0.123,0.016,0.246,0.032,0.364,0.058c0.241,0.042,0.482,0.101,0.712,0.164c0.236,0.069,0.466,0.143,0.691,0.233
		c0.225,0.09,0.439,0.186,0.654,0.297c0.852,0.429,1.596,1.013,2.207,1.697c0.611,0.684,1.087,1.469,1.404,2.301
		C247.34,125.792,247.501,126.678,247.501,127.558L247.501,127.558z M239.985,132.393v-2.031h-3.011v-0.869h3.011v-0.896h-3.011
		v-0.922h2.475l-2.946-4.443h1.452l2.105,3.223c0.236,0.366,0.418,0.689,0.552,0.96c0.107-0.217,0.305-0.557,0.595-1.018
		l1.988-3.165h1.548l-2.936,4.443h2.475v0.922h-2.989v0.896h2.989v0.869h-2.989v2.031H239.985L239.985,132.393z"/>
</g>
<g>
	<polygon fill="#F46767" points="207.53,148.696 213.71,154.504 227.33,141.61 230,144.121 213.615,159.61 205,151.51 	"/>
</g>
<g>
	<path fill="#5B99EE" d="M302.58,107.992c-0.48,0-0.98,0.16-1.375,0.425l0.37-1.91h3.435v-1.035h-4.245l-0.83,4.425h0.945
		l0.055-0.09c0.33-0.515,0.93-0.835,1.57-0.835c1.04,0,1.79,0.77,1.79,1.83c0,0.955-0.6,1.925-1.745,1.925
		c-0.98,0-1.685-0.66-1.715-1.61l-0.005-0.19h-1.095l0.005,0.2c0.035,1.545,1.145,2.58,2.755,2.58c1.62,0,2.895-1.245,2.895-2.83
		C305.39,109.152,304.26,107.992,302.58,107.992z M296.43,105.537c-0.185,1.27-0.79,1.29-2,1.335l-0.19,0.005v0.885h2.055v5.78h1.09
		v-8.17h-0.93L296.43,105.537z M303.125,97.667h1.565v1.56h-1.565V97.667z M295.31,97.667h1.565v1.56h-1.565V97.667z
		 M288.54,119.022v-17.19h22.92v17.19H288.54z M311.46,96.102v4.69h-22.92v-4.69H311.46z M287.5,95.062v25h25v-25H287.5z"/>
</g>
<g>
	<path fill="#666666" d="M279.048,125.333c0-2.08,1.685-3.765,3.765-3.765c2.075,0,3.76,1.685,3.76,3.765
		c0,2.075-1.685,3.76-3.76,3.76C280.733,129.093,279.048,127.408,279.048,125.333z M289.418,130.743l-2.33-2.335
		c0.625-0.865,0.99-1.925,0.99-3.075c0-2.91-2.355-5.271-5.265-5.271s-5.27,2.36-5.27,5.271c0,2.91,2.36,5.266,5.27,5.266
		c1.15,0,2.21-0.365,3.075-0.99l2.335,2.33c0.165,0.165,0.435,0.165,0.6,0l0.595-0.595
		C289.583,131.178,289.583,130.908,289.418,130.743z"/>
</g>
<g>
	<path fill="#D8505C" d="M276.315,131.888h-12.63c-0.655,0-1.185,0.525-1.185,1.178c0,0.648,0.53,1.178,1.185,1.178h12.63
		c0.655,0,1.185-0.529,1.185-1.178C277.5,132.412,276.97,131.888,276.315,131.888z M276.315,126.385h-12.63
		c-0.655,0-1.185,0.525-1.185,1.178s0.53,1.178,1.185,1.178h12.63c0.655,0,1.185-0.525,1.185-1.178
		C277.5,126.91,276.97,126.385,276.315,126.385z M263.685,123.238h12.63c0.655,0,1.185-0.525,1.185-1.178
		c0-0.648-0.53-1.178-1.185-1.178h-12.63c-0.655,0-1.185,0.529-1.185,1.178C262.5,122.714,263.03,123.238,263.685,123.238z"/>
</g>
<g>
	<g>
		<path fill="#ABB4BB" d="M122.235,157.58c0.27,0,0.535,0.049,0.79,0.147c0.24,0.098,0.46,0.239,0.65,0.435
			c0.095,0.098,0.18,0.195,0.25,0.298c0.075,0.107,0.135,0.215,0.18,0.327c0.115,0.259,0.17,0.518,0.17,0.787
			c0,0.264-0.055,0.518-0.17,0.757c-0.095,0.225-0.24,0.445-0.43,0.655c-0.195,0.176-0.415,0.318-0.66,0.42
			c-0.25,0.103-0.51,0.156-0.785,0.156c-0.285,0-0.55-0.049-0.79-0.147c-0.24-0.112-0.455-0.254-0.65-0.435
			c-0.19-0.205-0.335-0.425-0.43-0.65c-0.1-0.239-0.145-0.494-0.145-0.757c0-0.269,0.045-0.528,0.145-0.787
			c0.045-0.112,0.105-0.22,0.175-0.327c0.075-0.103,0.16-0.205,0.255-0.298c0.065-0.068,0.135-0.122,0.215-0.171l0.195-0.147
			c0.08-0.049,0.16-0.088,0.24-0.117c0.065-0.02,0.125-0.039,0.19-0.064c0.065-0.024,0.13-0.039,0.195-0.049l0.205-0.024
			c0.07-0.005,0.14-0.01,0.2-0.01L122.235,157.58L122.235,157.58z M131.294,157.629c0.13,0,0.265,0.01,0.4,0.034
			s0.265,0.064,0.395,0.112c0.255,0.093,0.475,0.239,0.65,0.435c0.19,0.191,0.345,0.401,0.455,0.625
			c0.1,0.244,0.145,0.498,0.145,0.772c0,0.127-0.01,0.264-0.035,0.401c-0.025,0.137-0.06,0.259-0.11,0.371
			c-0.11,0.225-0.265,0.445-0.455,0.65c-0.175,0.181-0.395,0.318-0.65,0.41c-0.24,0.117-0.505,0.171-0.79,0.171
			c-0.29,0-0.555-0.054-0.795-0.171c-0.255-0.112-0.465-0.249-0.625-0.41c-0.19-0.205-0.335-0.425-0.435-0.65
			c-0.11-0.239-0.165-0.498-0.165-0.772c0-0.127,0.01-0.259,0.035-0.386s0.07-0.259,0.13-0.386c0.1-0.225,0.245-0.435,0.435-0.625
			c0.08-0.098,0.175-0.181,0.29-0.254c0.11-0.073,0.225-0.132,0.335-0.181c0.08-0.034,0.165-0.064,0.25-0.083
			c0.09-0.024,0.18-0.044,0.265-0.049c0.09-0.01,0.18-0.015,0.28-0.015L131.294,157.629L131.294,157.629z M134.95,145.374
			c0.415,0,0.735,0.054,0.96,0.166c0.115,0.049,0.21,0.107,0.29,0.171s0.145,0.137,0.19,0.215c0.1,0.161,0.14,0.332,0.12,0.508
			c0,0.064-0.005,0.122-0.01,0.181l-0.025,0.156c-0.005,0.049-0.02,0.098-0.035,0.147l-0.29,0.792l-0.455,1.329l-0.505,1.422
			l-0.385,1.139c-0.095,0.274-0.205,0.508-0.325,0.709c-0.12,0.2-0.25,0.362-0.395,0.474c-0.29,0.225-0.64,0.337-1.06,0.337h-11.44
			l0.335,1.93h10.964c0.705,0,1.055,0.298,1.055,0.889c0,0.293-0.07,0.542-0.215,0.752c-0.13,0.205-0.4,0.313-0.82,0.313h-11.42
			c-0.095,0-0.185-0.01-0.275-0.024c-0.085-0.015-0.165-0.039-0.24-0.064c-0.07-0.024-0.14-0.059-0.205-0.107
			c-0.19-0.127-0.35-0.298-0.48-0.503c-0.065-0.098-0.125-0.205-0.18-0.318c-0.055-0.113-0.105-0.23-0.155-0.362
			c-0.08-0.303-0.135-0.538-0.17-0.699l-0.12-0.625l-0.24-1.231l-0.31-1.666l-0.365-1.857l-0.935-4.852h-1.636
			c-0.225,0-0.4-0.044-0.53-0.142c-0.14-0.112-0.27-0.244-0.38-0.386c-0.035-0.098-0.07-0.186-0.11-0.269
			c-0.04-0.078-0.07-0.161-0.085-0.239c-0.015-0.083-0.03-0.161-0.035-0.244c-0.01-0.078-0.015-0.151-0.015-0.215
			c0-0.288,0.1-0.533,0.29-0.723c0.115-0.083,0.235-0.147,0.36-0.195c0.13-0.049,0.275-0.068,0.435-0.068h2.211
			c0.29,0,0.52,0.039,0.695,0.117l0.23,0.147c0.07,0.049,0.14,0.103,0.205,0.166c0.095,0.147,0.16,0.283,0.19,0.41l0.12,0.386
			c0.015,0.068,0.04,0.186,0.075,0.362v0.122l0.095,0.63l0.12,0.821h14.906L134.95,145.374L134.95,145.374z"/>
	</g>
	
		<ellipse fill="#44BB00" stroke="#FFFFFF" stroke-linecap="square" stroke-linejoin="round" stroke-miterlimit="10" cx="134.515" cy="144.997" rx="5.002" ry="4.886"/>
	
		<line fill="none" stroke="#FFFFFF" stroke-width="2" stroke-linecap="square" stroke-linejoin="round" stroke-miterlimit="10" x1="132.014" y1="144.997" x2="137.016" y2="144.997"/>
	
		<line fill="none" stroke="#FFFFFF" stroke-width="2" stroke-linecap="square" stroke-linejoin="round" stroke-miterlimit="10" x1="134.515" y1="142.554" x2="134.515" y2="147.441"/>
</g>
<g>
	<g>
		
			<linearGradient id="SVGID_1_" gradientUnits="userSpaceOnUse" x1="-1298.4089" y1="-1032.2371" x2="-1298.4089" y2="-1078.2371" gradientTransform="matrix(1 0 0 -1 1434.9199 -866.1621)">
			<stop  offset="0.0054" style="stop-color:#FF8A00"/>
			<stop  offset="1" style="stop-color:#FF4300"/>
		</linearGradient>
		
			<path fill="url(#SVGID_1_)" stroke="#FFFFFF" stroke-width="2" stroke-linecap="square" stroke-linejoin="round" stroke-miterlimit="10" d="
			M113.511,170.74c0-3.275,1.415-4.665,4.735-4.665h36.53c3.32,0,4.735,1.39,4.735,4.665v36.67c0,3.275-1.415,4.665-4.735,4.665
			h-36.53c-3.32,0-4.735-1.39-4.735-4.665V170.74z"/>
	</g>
	<path fill="#FFFFFF" d="M130.771,202.25c0.38,0,0.755,0.07,1.115,0.21c0.335,0.14,0.64,0.35,0.91,0.63
		c0.135,0.14,0.255,0.285,0.355,0.435c0.1,0.15,0.185,0.31,0.255,0.47c0.155,0.375,0.235,0.75,0.235,1.135s-0.08,0.75-0.235,1.095
		c-0.135,0.33-0.34,0.64-0.61,0.945c-0.27,0.255-0.58,0.455-0.93,0.61c-0.345,0.15-0.715,0.225-1.095,0.225
		c-0.405,0-0.78-0.07-1.115-0.21c-0.34-0.165-0.645-0.37-0.915-0.63c-0.27-0.3-0.47-0.615-0.605-0.94
		c-0.135-0.35-0.205-0.715-0.205-1.095c0-0.385,0.07-0.76,0.205-1.135c0.065-0.165,0.15-0.32,0.25-0.47s0.22-0.295,0.355-0.435
		c0.09-0.095,0.19-0.175,0.305-0.245l0.27-0.21c0.11-0.07,0.225-0.13,0.34-0.175c0.09-0.025,0.18-0.05,0.27-0.085
		s0.18-0.06,0.27-0.07l0.285-0.035C130.581,202.255,130.681,202.25,130.771,202.25L130.771,202.25z M143.501,202.32
		c0.18,0,0.365,0.02,0.56,0.055c0.19,0.035,0.375,0.085,0.555,0.155c0.36,0.14,0.665,0.35,0.915,0.63
		c0.27,0.28,0.485,0.58,0.64,0.905c0.135,0.35,0.205,0.72,0.205,1.115c0,0.19-0.02,0.38-0.05,0.575
		c-0.035,0.2-0.085,0.38-0.155,0.54c-0.155,0.33-0.37,0.64-0.64,0.945c-0.25,0.255-0.555,0.45-0.915,0.59
		c-0.335,0.165-0.71,0.245-1.115,0.245s-0.775-0.08-1.11-0.245c-0.36-0.16-0.655-0.36-0.88-0.59c-0.27-0.305-0.475-0.615-0.61-0.945
		c-0.155-0.345-0.235-0.72-0.235-1.115c0-0.185,0.015-0.37,0.05-0.555s0.095-0.375,0.185-0.56c0.135-0.325,0.34-0.625,0.61-0.905
		c0.11-0.14,0.245-0.26,0.405-0.365c0.155-0.105,0.315-0.19,0.475-0.26c0.11-0.05,0.23-0.09,0.355-0.125
		c0.12-0.035,0.245-0.055,0.37-0.07c0.125-0.01,0.25-0.02,0.385-0.015L143.501,202.32L143.501,202.32z M148.636,184.615
		c0.585,0,1.035,0.08,1.35,0.245c0.16,0.07,0.295,0.15,0.405,0.245c0.115,0.09,0.205,0.195,0.27,0.31
		c0.135,0.235,0.19,0.48,0.17,0.735c0,0.09-0.005,0.18-0.02,0.26l-0.03,0.225c-0.01,0.07-0.03,0.14-0.05,0.21l-0.41,1.15l-0.64,1.92
		l-0.71,2.055l-0.54,1.64c-0.135,0.395-0.285,0.735-0.455,1.025c-0.17,0.295-0.355,0.52-0.555,0.68
		c-0.41,0.325-0.905,0.49-1.49,0.49h-16.075l0.475,2.79h15.4c0.99,0,1.485,0.43,1.485,1.29c0,0.415-0.1,0.775-0.305,1.08
		c-0.18,0.3-0.56,0.45-1.145,0.45h-16.045c-0.135,0-0.265-0.01-0.385-0.035c-0.125-0.02-0.24-0.05-0.34-0.085
		c-0.1-0.035-0.2-0.09-0.285-0.16c-0.275-0.185-0.5-0.425-0.68-0.73c-0.09-0.14-0.17-0.29-0.25-0.45
		c-0.08-0.165-0.15-0.34-0.22-0.525c-0.115-0.44-0.19-0.78-0.235-1.01l-0.17-0.905l-0.34-1.78l-0.44-2.405l-0.505-2.685
		l-1.315-7.005h-2.3c-0.315,0-0.56-0.07-0.74-0.21c-0.205-0.16-0.385-0.35-0.54-0.555c-0.045-0.14-0.1-0.27-0.155-0.385
		c-0.055-0.115-0.095-0.235-0.115-0.35c-0.025-0.115-0.04-0.235-0.055-0.35c-0.01-0.115-0.015-0.22-0.015-0.31
		c0-0.42,0.135-0.77,0.405-1.05c0.16-0.115,0.325-0.205,0.505-0.275c0.18-0.07,0.385-0.105,0.61-0.105h3.105
		c0.41,0,0.735,0.055,0.98,0.17c0.115,0.07,0.22,0.14,0.32,0.21c0.105,0.07,0.2,0.155,0.29,0.245c0.135,0.21,0.225,0.405,0.27,0.595
		l0.17,0.555c0.02,0.095,0.055,0.27,0.1,0.525v0.175l0.135,0.905l0.17,1.185h20.935L148.636,184.615L148.636,184.615z"/>
	
		<circle fill="#FF0000" stroke="#FFFFFF" stroke-width="2" stroke-linecap="round" stroke-linejoin="round" stroke-miterlimit="10" cx="149.511" cy="182.575" r="4.5"/>
</g>
<g>
	<path fill="#FFFFFF" d="M232.356,127.558c-0.005-0.864-0.177-1.728-0.514-2.529c-0.332-0.795-0.83-1.532-1.452-2.147
		s-1.371-1.103-2.186-1.437c-0.407-0.164-0.83-0.292-1.264-0.371c-0.434-0.085-0.873-0.122-1.318-0.122
		c-0.439,0-0.879,0.048-1.313,0.133c-0.429,0.09-0.852,0.217-1.254,0.387c-0.407,0.17-0.793,0.376-1.152,0.62
		c-0.364,0.244-0.702,0.52-1.007,0.827c-0.616,0.61-1.104,1.341-1.436,2.137c-0.327,0.79-0.498,1.649-0.493,2.502
		c0,0.429,0.037,0.859,0.123,1.278c0.08,0.419,0.209,0.832,0.37,1.23c0.332,0.795,0.82,1.522,1.436,2.137
		c0.305,0.302,0.643,0.583,1.007,0.827c0.359,0.244,0.745,0.451,1.152,0.62c0.402,0.17,0.825,0.297,1.254,0.382
		c0.434,0.09,0.873,0.133,1.313,0.138c0.445,0,0.884-0.042,1.318-0.122c0.434-0.085,0.857-0.207,1.264-0.376
		c0.814-0.329,1.564-0.822,2.186-1.431c0.621-0.615,1.12-1.352,1.452-2.152C232.179,129.291,232.351,128.427,232.356,127.558
		L232.356,127.558z M232.501,127.558c0,0.885-0.161,1.771-0.477,2.603c-0.316,0.832-0.793,1.617-1.404,2.301
		c-0.605,0.684-1.355,1.267-2.207,1.702c-0.209,0.106-0.429,0.207-0.654,0.297c-0.225,0.085-0.455,0.164-0.686,0.233
		c-0.236,0.064-0.477,0.122-0.718,0.164c-0.118,0.021-0.241,0.042-0.364,0.058l-0.182,0.021l-0.091,0.011l-0.048,0.005l-0.032,0.005
		h-0.016h-0.043l-0.048,0.005l-0.091,0.005l-0.188,0.011c-0.123,0.005-0.252,0.005-0.375,0.005c-0.252-0.005-0.504-0.016-0.75-0.048
		c-0.252-0.027-0.504-0.069-0.75-0.122c-0.129-0.027-0.252-0.058-0.375-0.09s-0.241-0.069-0.364-0.111
		c-0.975-0.318-1.891-0.838-2.662-1.532c-0.771-0.689-1.404-1.543-1.827-2.492c-0.054-0.122-0.107-0.239-0.155-0.361
		c-0.043-0.122-0.086-0.244-0.129-0.371c-0.038-0.122-0.075-0.249-0.113-0.371c-0.032-0.127-0.064-0.254-0.091-0.382
		c-0.054-0.254-0.096-0.509-0.118-0.769c-0.016-0.127-0.027-0.26-0.032-0.387l-0.011-0.196v-0.095v-0.048v-0.053v-0.095l0.005-0.095
		l0.005-0.196c0.005-0.127,0.016-0.26,0.032-0.387c0.027-0.26,0.07-0.514,0.123-0.769l0.043-0.191l0.048-0.191
		c0.032-0.127,0.07-0.249,0.113-0.371c0.075-0.249,0.171-0.493,0.279-0.732c0.429-0.949,1.061-1.803,1.832-2.492
		c0.771-0.689,1.688-1.209,2.657-1.527c0.488-0.159,0.986-0.265,1.489-0.323c0.252-0.027,0.504-0.042,0.75-0.048
		c0.129,0,0.252,0,0.375,0.005l0.188,0.011l0.091,0.005l0.096,0.005l0.091,0.011l0.091,0.011l0.182,0.021
		c0.123,0.016,0.246,0.032,0.364,0.058c0.241,0.042,0.482,0.101,0.712,0.164c0.236,0.069,0.466,0.143,0.691,0.233
		c0.225,0.09,0.439,0.186,0.654,0.297c0.852,0.429,1.596,1.013,2.207,1.697c0.611,0.684,1.087,1.469,1.404,2.301
		C232.34,125.792,232.501,126.678,232.501,127.558L232.501,127.558z M224.985,132.393v-2.031h-3.011v-0.869h3.011v-0.896h-3.011
		v-0.922h2.475l-2.946-4.443h1.452l2.105,3.223c0.236,0.366,0.418,0.689,0.552,0.96c0.107-0.217,0.305-0.557,0.595-1.018
		l1.988-3.165h1.548l-2.936,4.443h2.475v0.922h-2.989v0.896h2.989v0.869h-2.989v2.031H224.985L224.985,132.393z"/>
</g>
<g>
	<path fill="#272636" d="M321.041,102.563l6.244-6.244c0.287-0.287,0.287-0.753,0-1.041c-0.287-0.287-0.753-0.287-1.041,0
		L320,101.522l-6.244-6.244c-0.287-0.287-0.753-0.287-1.041,0c-0.287,0.287-0.287,0.753,0,1.041l6.244,6.244l-6.244,6.244
		c-0.287,0.287-0.287,0.753,0,1.041c0.287,0.287,0.753,0.287,1.041,0l6.244-6.244l6.244,6.244c0.287,0.287,0.753,0.287,1.041,0
		c0.287-0.287,0.287-0.753,0-1.041L321.041,102.563L321.041,102.563z M321.041,102.563"/>
</g>
<g>
	<path fill="#666666" d="M246.876,149.359c0,0.73-0.598,1.328-1.328,1.328h-13.344c-0.73,0-1.328-0.598-1.328-1.328v-0.664
		c0-0.73,0.597-1.328,1.328-1.328h13.344c0.73,0,1.328,0.597,1.328,1.328V149.359L246.876,149.359z M239.208,141.027
		c0.73,0,1.328,0.597,1.328,1.328v13.344c0,0.73-0.597,1.328-1.328,1.328h-0.663c-0.73,0-1.328-0.597-1.328-1.328v-13.344
		c0-0.73,0.598-1.328,1.328-1.328H239.208L239.208,141.027z M239.208,141.027"/>
</g>
<path fill="#666666" d="M263.376,149.297c0,0.593-0.486,1.079-1.079,1.079h-10.842c-0.593,0-1.079-0.485-1.079-1.079v-0.539
	c0-0.593,0.485-1.079,1.079-1.079h10.842c0.593,0,1.079,0.485,1.079,1.079V149.297L263.376,149.297z"/>
<path fill="#272636" d="M257.249,140.027"/>
</svg>
